<?xml version="1.0" ?><svg id="Layer_3" style="enable-background:new 0 0 32 32;" version="1.1" viewBox="0 0 32 32" xml:space="preserve" xmlns="http://www.w3.org/2000/svg" xmlns:xlink="http://www.w3.org/1999/xlink"><g><path d="M30.10498,11.77832l-3.00732-0.31836c-0.01318-0.03223-0.02686-0.06445-0.04004-0.09668l1.90186-2.35156   c0.32129-0.39746,0.29102-0.97461-0.0708-1.33594l-4.56445-4.56445c-0.36279-0.36328-0.93848-0.39258-1.33594-0.07031   l-2.35156,1.90137c-0.03223-0.01367-0.06396-0.02637-0.09619-0.04004l-0.31836-3.00781C20.16797,1.38574,19.73926,1,19.22754,1   h-6.45508c-0.51172,0-0.94043,0.38574-0.99463,0.89453l-0.31836,3.00781c-0.03223,0.0127-0.06396,0.02637-0.09619,0.04004   L9.01172,3.04102C8.61377,2.71875,8.03809,2.74805,7.67578,3.11133L3.11133,7.67578   c-0.36182,0.36133-0.39209,0.93848-0.0708,1.33594l1.90186,2.35156c-0.01318,0.03223-0.02686,0.06445-0.04004,0.09668   l-3.00732,0.31836C1.38623,11.83203,1,12.26074,1,12.77246v6.45508c0,0.51172,0.38623,0.94043,0.89502,0.99414l3.00732,0.31836   c0.01318,0.03223,0.02686,0.06445,0.04004,0.09668l-1.90186,2.35156c-0.32129,0.39746-0.29102,0.97461,0.0708,1.33594   l4.56445,4.56445c0.3623,0.3623,0.93799,0.3916,1.33594,0.07031l2.35156-1.90137c0.03223,0.01367,0.06396,0.02734,0.09619,0.04004   l0.31836,3.00781C11.83203,30.61426,12.26074,31,12.77246,31h6.45508c0.51172,0,0.94043-0.38574,0.99463-0.89453l0.31836-3.00781   c0.03223-0.01367,0.06396-0.02637,0.09619-0.04004l2.35156,1.90137c0.39746,0.32129,0.97314,0.29199,1.33594-0.07031   l4.56445-4.56445c0.36182-0.36133,0.39209-0.93848,0.0708-1.33594l-1.90186-2.35156   c0.01318-0.03223,0.02686-0.06445,0.04004-0.09668l3.00732-0.31836C30.61377,20.16797,31,19.73926,31,19.22754v-6.45508   C31,12.26074,30.61377,11.83203,30.10498,11.77832z M29,18.32813l-2.72363,0.28809   c-0.38525,0.04004-0.71191,0.2998-0.83936,0.66504c-0.125,0.35938-0.2749,0.71875-0.44434,1.06836   c-0.16895,0.34863-0.12109,0.76367,0.12207,1.06543l1.72363,2.13086l-3.29199,3.29199l-2.13135-1.72266   c-0.30176-0.24512-0.7168-0.29102-1.06494-0.12207c-0.35498,0.17188-0.71387,0.32031-1.06641,0.44238   c-0.36621,0.12695-0.62646,0.4541-0.66748,0.83984L18.32764,29h-4.65527l-0.28857-2.72461   c-0.04102-0.38574-0.30127-0.71289-0.66748-0.83984c-0.35449-0.12207-0.71289-0.27148-1.06592-0.44238   c-0.34814-0.16895-0.76318-0.12305-1.06543,0.12207l-2.13135,1.72266L5.16162,23.5459l1.72363-2.13086   c0.24316-0.30176,0.29102-0.7168,0.12207-1.06543C6.83789,20,6.68799,19.64063,6.56299,19.28125   c-0.12744-0.36523-0.4541-0.625-0.83936-0.66504L3,18.32813v-4.65625l2.72363-0.28809   c0.38525-0.04004,0.71191-0.2998,0.83936-0.66504c0.125-0.35938,0.2749-0.71875,0.44434-1.06836   c0.16895-0.34863,0.12109-0.76367-0.12207-1.06543L5.16162,8.4541l3.29199-3.29199l2.13135,1.72266   c0.30225,0.24512,0.71729,0.29199,1.06543,0.12207c0.35303-0.1709,0.71143-0.32031,1.06592-0.44238   c0.36621-0.12695,0.62646-0.4541,0.66748-0.83984L13.67236,3h4.65527l0.28857,2.72461   c0.04102,0.38574,0.30127,0.71289,0.66748,0.83984c0.35254,0.12207,0.71143,0.27051,1.06641,0.44238   c0.34814,0.16992,0.76318,0.12305,1.06494-0.12207l2.13135-1.72266l3.29199,3.29199l-1.72363,2.13086   c-0.24316,0.30176-0.29102,0.7168-0.12207,1.06543c0.16943,0.34961,0.31934,0.70898,0.44434,1.06836   c0.12744,0.36523,0.4541,0.625,0.83936,0.66504L29,13.67188V18.32813z"/><path d="M16,7.83008c-4.50488,0-8.16943,3.66504-8.16943,8.16992S11.49512,24.16992,16,24.16992S24.16943,20.50488,24.16943,16   S20.50488,7.83008,16,7.83008z M16,22.16992c-3.40186,0-6.16943-2.76758-6.16943-6.16992S12.59814,9.83008,16,9.83008   S22.16943,12.59766,22.16943,16S19.40186,22.16992,16,22.16992z"/></g></svg>